<svg xmlns="http://www.w3.org/2000/svg" viewBox="0 0 250 250"><defs><style>.cls-1{fill:#aa2b2b;}.cls-2{fill:#3f5c6c;}.cls-3{fill:#35495e;}.cls-4{fill:#ff5364;}.cls-5{fill:#2c3e50;}.cls-6{fill:#f0c419;}.cls-7{fill:#547580;}</style></defs><title>materias</title><g id="Camada_2" data-name="Camada 2"><circle class="cls-1" cx="125" cy="125" r="124.5"/></g><g id="Camada_4" data-name="Camada 4"><g id="Page-1"><g id="_038---Cloud-Data" data-name="038---Cloud-Data"><path id="Shape" class="cls-2" d="M149.75,68.59v52l-20.82,14.25L82.45,166.69c-13.71-1.54-22.94-4.49-22.94-7.86V68.59Z"/><path id="Shape-2" data-name="Shape" class="cls-3" d="M149.75,97.92V120.6l-20.82,14.25a193.49,193.49,0,0,1-24.3,1.42c-24.93,0-45.12-4-45.12-9V97.92c0,5,20.19,9,45.12,9S149.75,102.91,149.75,97.92Z"/><path id="Shape-3" data-name="Shape" class="cls-3" d="M122.61,98.44a2.26,2.26,0,0,1-.19-4.51,113.26,113.26,0,0,0,17.75-2.71,2.26,2.26,0,0,1,1.11,4.38,118.78,118.78,0,0,1-18.47,2.84Z"/><circle id="Oval" class="cls-4" cx="68.53" cy="82.13" r="2.26"/><path id="Shape-4" data-name="Shape" class="cls-3" d="M68.53,97.92a2.25,2.25,0,0,1-2.25-2.25V91.15a2.26,2.26,0,0,1,4.51,0v4.52A2.26,2.26,0,0,1,68.53,97.92Z"/><circle id="Oval-2" data-name="Oval" class="cls-4" cx="68.53" cy="111.46" r="2.26"/><path id="Shape-5" data-name="Shape" class="cls-5" d="M68.53,127.25A2.26,2.26,0,0,1,66.28,125v-4.51a2.26,2.26,0,0,1,4.51,0V125A2.26,2.26,0,0,1,68.53,127.25Z"/><circle id="Oval-3" data-name="Oval" class="cls-4" cx="68.53" cy="140.79" r="2.26"/><path id="Shape-6" data-name="Shape" class="cls-3" d="M68.53,156.58a2.26,2.26,0,0,1-2.25-2.26v-4.51a2.26,2.26,0,1,1,4.51,0v4.51A2.26,2.26,0,0,1,68.53,156.58Z"/><path id="Shape-7" data-name="Shape" class="cls-6" d="M147.37,120.48c12.66,0,23.18,10.15,25,23.35,10.24,1.82,18.08,11.5,18.08,23.14,0,12.93-9.68,23.46-21.59,23.46H100.17c-10,0-18.1-8.83-18.1-19.67s8.12-19.66,18.1-19.66h.37c1.47-10.63,9.92-18.81,20.11-18.81a19.12,19.12,0,0,1,5.42.8,24.85,24.85,0,0,1,21.3-12.61Z"/><ellipse id="Oval-4" data-name="Oval" class="cls-7" cx="104.63" cy="68.59" rx="45.12" ry="9.02"/></g></g></g></svg>