<svg xmlns="http://www.w3.org/2000/svg" viewBox="0 0 250 250"><defs><style>.cls-1{fill:#aa2b2b;}.cls-2{fill:#71c285;}.cls-3{fill:#cc4b4c;}.cls-4{fill:#e4c05c;}.cls-5{fill:#b19046;}.cls-6{fill:#ecf0f1;}.cls-7{fill:#5e5f62;}.cls-8{fill:#e57e25;}.cls-9{fill:#f29c1f;}.cls-10{fill:#a5a5a4;}</style></defs><title>materias</title><g id="Camada_2" data-name="Camada 2"><circle class="cls-1" cx="125" cy="125" r="124.5"/></g><g id="Camada_4" data-name="Camada 4"><path class="cls-2" d="M177.79,67.92h6.34A2.12,2.12,0,0,1,186.25,70l.05,114.1a2.1,2.1,0,0,1-2.11,2.11l-118.32.06a2.1,2.1,0,0,1-2.11-2.11L63.7,70.1A2.11,2.11,0,0,1,65.81,68Z"/><path class="cls-3" d="M127.08,63.72h33.81V76.38a2.11,2.11,0,0,1-2.11,2.12H129.2a2.11,2.11,0,0,1-2.11-2.11V63.72Z"/><path class="cls-4" d="M169.34,63.7h8.45v8.45a2.11,2.11,0,0,1-2.12,2.11h-4.22a2.12,2.12,0,0,1-2.12-2.12V63.7Z"/><path class="cls-4" d="M110.18,63.73h8.45v8.45a2.1,2.1,0,0,1-2.11,2.11H112.3a2.12,2.12,0,0,1-2.12-2.12V63.73Z"/><path class="cls-5" d="M97.51,87a2.11,2.11,0,0,1-2.11-2.11V76.42a2.12,2.12,0,1,1,4.23,0v8.45A2.1,2.1,0,0,1,97.51,87Z"/><path class="cls-6" d="M84.83,78.54a2.13,2.13,0,0,1-1.5-3.62,2.11,2.11,0,0,1,3.61,1.5,2.07,2.07,0,0,1-.61,1.5A2.12,2.12,0,0,1,84.83,78.54Z"/><path class="cls-6" d="M72.15,78.54a2.12,2.12,0,0,1-1.5-3.61,2.22,2.22,0,0,1,3,0,2.11,2.11,0,0,1-1.5,3.61Z"/><path class="cls-4" d="M74.27,93.33H78.5a2.1,2.1,0,0,1,2.11,2.11l0,38a2.11,2.11,0,0,1-2.11,2.12H74.3a2.11,2.11,0,0,1-2.12-2.11l0-38A2.12,2.12,0,0,1,74.27,93.33Z"/><path class="cls-4" d="M91.18,93.32H95.4a2.12,2.12,0,0,1,2.12,2.11l0,38a2.12,2.12,0,0,1-2.12,2.11H91.2a2.12,2.12,0,0,1-2.12-2.11v-38A2.11,2.11,0,0,1,91.18,93.32Z"/><circle class="cls-7" cx="76.41" cy="148.27" r="4.23"/><path class="cls-7" d="M82.76,163.05h8.45a2.11,2.11,0,0,1,2.12,2.11v8.45a2.11,2.11,0,0,1-2.11,2.12H82.77a2.11,2.11,0,0,1-2.12-2.11v-8.45A2.11,2.11,0,0,1,82.76,163.05Z"/><path class="cls-5" d="M91.2,144h4.23a2.11,2.11,0,0,1,2.11,2.11v4.23a2.11,2.11,0,0,1-2.12,2.11H91.21a2.11,2.11,0,0,1-2.12-2.11v-4.22A2.12,2.12,0,0,1,91.2,144Z"/><rect class="cls-8" x="118.65" y="91.19" width="8.45" height="21.13"/><path class="cls-9" d="M110.19,91.2h8.45v21.13h-6.33a2.13,2.13,0,0,1-2.12-2.11v-19Z"/><path class="cls-9" d="M135.55,91.19v19a2.13,2.13,0,0,1-2.11,2.12h-6.34V91.19Z"/><path class="cls-9" d="M186.28,133.42v8.45h-8.45v10.56a2.12,2.12,0,0,1-2.12,2.11l-38,0a2.11,2.11,0,0,1-2.11-2.11l0-29.58a2.13,2.13,0,0,1,2.12-2.11l38,0a2.11,2.11,0,0,1,2.11,2.11v10.56Z"/><path class="cls-7" d="M144,131.33a2.24,2.24,0,0,1-1.5-.61l-.26-.32a1.93,1.93,0,0,1-.19-.38,1.29,1.29,0,0,1-.12-.38,2,2,0,0,1,0-.42,2.11,2.11,0,1,1,4.22,0,3,3,0,0,1,0,.42,1.32,1.32,0,0,1-.13.38,1.5,1.5,0,0,1-.19.38,3.92,3.92,0,0,1-.25.32A2.26,2.26,0,0,1,144,131.33Z"/><path class="cls-7" d="M144,148.23a2.06,2.06,0,0,1-.81-.17,2.19,2.19,0,0,1-.69-.44,2.14,2.14,0,0,1,0-3,2.42,2.42,0,0,1,.69-.45,2.08,2.08,0,0,1,1.23-.12,1.29,1.29,0,0,1,.38.12,1.93,1.93,0,0,1,.38.19l.32.26a2.16,2.16,0,0,1,0,3l-.32.25a1.35,1.35,0,0,1-.38.19,1.32,1.32,0,0,1-.38.13A3,3,0,0,1,144,148.23Z"/><path class="cls-7" d="M169.37,131.32a2.21,2.21,0,0,1-.8-.17,2.46,2.46,0,0,1-.7-.45l-.25-.31a1.93,1.93,0,0,1-.19-.38,1.71,1.71,0,0,1-.13-.38,3,3,0,0,1,0-.43,2.26,2.26,0,0,1,.61-1.5,2.67,2.67,0,0,1,.7-.44,2.14,2.14,0,0,1,2.3.44,2.23,2.23,0,0,1,.62,1.5,3,3,0,0,1-.05.42,1.21,1.21,0,0,1-.12.38,1.76,1.76,0,0,1-.19.39,3.88,3.88,0,0,1-.26.31A2.21,2.21,0,0,1,169.37,131.32Z"/><path class="cls-7" d="M169.38,148.22a2.12,2.12,0,0,1-1.5-3.61,2.15,2.15,0,0,1,1.9-.57,1.09,1.09,0,0,1,.4.12,1.5,1.5,0,0,1,.38.19l.32.26a2.14,2.14,0,0,1,0,3l-.31.25a1.93,1.93,0,0,1-.38.19,1.51,1.51,0,0,1-.41.13A2.58,2.58,0,0,1,169.38,148.22Z"/><path class="cls-3" d="M156.7,144a2.11,2.11,0,0,1-2.11-2.11v-8.45a2.12,2.12,0,1,1,4.23,0v8.46A2.12,2.12,0,0,1,156.7,144Z"/><path class="cls-6" d="M148.25,139.78H144a2.12,2.12,0,0,1,0-4.23h4.23a2.12,2.12,0,0,1,0,4.23Z"/><path class="cls-6" d="M169.38,139.77h-4.23a2.12,2.12,0,0,1,0-4.23h4.23a2.12,2.12,0,0,1,0,4.23Z"/><rect class="cls-4" x="148.23" y="95.4" width="25.35" height="12.68"/><path class="cls-7" d="M108.09,120.78H125a2.12,2.12,0,0,1,2.11,2.12l0,29.58a2.12,2.12,0,0,1-2.12,2.11h-16.9a2.11,2.11,0,0,1-2.11-2.11l0-29.58A2.12,2.12,0,0,1,108.09,120.78Z"/><path class="cls-10" d="M116.55,131.34a2.22,2.22,0,0,1-1.5-.61l-.25-.32a3.09,3.09,0,0,1-.32-.76,3,3,0,0,1,0-.42,2.22,2.22,0,0,1,.61-1.5,2.13,2.13,0,0,1,1.92-.57,1.07,1.07,0,0,1,.38.13,1.35,1.35,0,0,1,.38.19,2.51,2.51,0,0,1,.32.25,2.2,2.2,0,0,1,.61,1.5,2,2,0,0,1,0,.42,1.07,1.07,0,0,1-.13.38,1.35,1.35,0,0,1-.19.38l-.25.32-.32.25a3.09,3.09,0,0,1-.76.32A3,3,0,0,1,116.55,131.34Z"/><path class="cls-10" d="M116.56,139.79a2.25,2.25,0,0,1-.81-.16,2.42,2.42,0,0,1-.69-.45l-.26-.31a1.93,1.93,0,0,1-.19-.38,1.63,1.63,0,0,1-.13-.39c0-.13,0-.28,0-.42a2,2,0,0,1,.17-.8,1.89,1.89,0,0,1,1.14-1.14,2,2,0,0,1,1.23-.13,1.32,1.32,0,0,1,.38.13,1.5,1.5,0,0,1,.38.19l.31.25a2.46,2.46,0,0,1,.45.7,2.16,2.16,0,0,1,.17.8c0,.14,0,.28,0,.42a1.71,1.71,0,0,1-.13.38,1.5,1.5,0,0,1-.19.38l-.25.32-.32.25a1.5,1.5,0,0,1-.38.19,1.32,1.32,0,0,1-.38.13A2,2,0,0,1,116.56,139.79Z"/><path class="cls-10" d="M116.56,148.25a2.16,2.16,0,0,1-.8-.17,2.46,2.46,0,0,1-.7-.45,2.14,2.14,0,0,1,0-3,2.61,2.61,0,0,1,.69-.44,2.08,2.08,0,0,1,1.23-.13,1.32,1.32,0,0,1,.38.13,1.35,1.35,0,0,1,.38.19l.32.25a2.14,2.14,0,0,1,0,3l-.32.25a1.25,1.25,0,0,1-.38.2,1.29,1.29,0,0,1-.38.12A3,3,0,0,1,116.56,148.25Z"/><path class="cls-7" d="M103.89,163l71.84,0a2.1,2.1,0,0,1,2.11,2.11v8.45a2.11,2.11,0,0,1-2.11,2.11l-71.84,0a2.11,2.11,0,0,1-2.12-2.11v-8.45A2.11,2.11,0,0,1,103.89,163Z"/><path class="cls-6" d="M72.2,180a2.12,2.12,0,0,1-1.5-3.61,2,2,0,0,1,.7-.45,2.14,2.14,0,0,1,1.61,0,2.42,2.42,0,0,1,.69.45,2.07,2.07,0,0,1,.45,2.3,2.46,2.46,0,0,1-.45.7A2.24,2.24,0,0,1,72.2,180Z"/><path class="cls-4" d="M112.35,171.49v4.23h-4.23v-4.23a2.12,2.12,0,0,1,4.23,0Z"/><path class="cls-4" d="M120.8,171.49v4.22h-4.23v-4.22a2.12,2.12,0,1,1,4.23,0Z"/><path class="cls-4" d="M129.25,171.48v4.23H125v-4.23a2.12,2.12,0,0,1,4.23,0Z"/><path class="cls-4" d="M137.7,171.48v4.22h-4.22v-4.23a2.12,2.12,0,0,1,4.23,0Z"/><path class="cls-4" d="M146.15,171.47v4.23h-4.22v-4.22a2.11,2.11,0,1,1,4.22,0Z"/><path class="cls-4" d="M154.6,171.47v4.22h-4.23v-4.23a2.11,2.11,0,0,1,4.22,0Z"/><path class="cls-4" d="M163.06,171.46v4.23h-4.23v-4.22a2.12,2.12,0,1,1,4.23,0Z"/><path class="cls-4" d="M171.51,171.46v4.23h-4.23v-4.23a2.12,2.12,0,0,1,4.23,0Z"/><path class="cls-4" d="M93.28,63.74h8.45V76.41a2.11,2.11,0,0,1-2.11,2.12H95.4a2.11,2.11,0,0,1-2.12-2.11V63.74Z"/><circle class="cls-6" cx="110.19" cy="91.2" r="4.23"/><circle class="cls-6" cx="118.64" cy="91.2" r="4.23"/><circle class="cls-6" cx="127.1" cy="91.19" r="4.23"/><circle class="cls-6" cx="135.55" cy="91.19" r="4.23"/><circle class="cls-6" cx="148.23" cy="108.08" r="4.23"/><circle class="cls-6" cx="156.69" cy="108.08" r="4.23"/><circle class="cls-6" cx="165.14" cy="108.08" r="4.23"/><circle class="cls-6" cx="173.59" cy="108.07" r="4.23"/></g></svg>