<svg xmlns="http://www.w3.org/2000/svg" viewBox="0 0 250 250"><defs><style>.cls-1{fill:#aa2b2b;}.cls-2{fill:#38454f;}.cls-3{fill:#283238;}.cls-4{fill:#546a79;}.cls-5{fill:#1a2530;}.cls-6{fill:#28384c;}.cls-7{fill:#81ea1c;}</style></defs><title>materias</title><g id="Camada_2" data-name="Camada 2"><circle class="cls-1" cx="125" cy="125" r="124.5"/></g><g id="Camada_4" data-name="Camada 4"><path class="cls-2" d="M193.28,163.26H56.72a8,8,0,0,1-7.95-7.95V139.67a8,8,0,0,1,7.95-8H193.28a8,8,0,0,1,7.95,8v15.64A8,8,0,0,1,193.28,163.26Z"/><path class="cls-3" d="M193.34,131.72H56.65l11.95-9.56a4.35,4.35,0,0,1,2.73-1H178.67a4.34,4.34,0,0,1,2.72,1Z"/><path class="cls-3" d="M56.65,163.26H193.34l-11.94,9.56a4.39,4.39,0,0,1-2.73,1H71.33a4.35,4.35,0,0,1-2.73-1Z"/><path class="cls-4" d="M69.8,139.6H61.91a2.63,2.63,0,1,0,0,5.26H69.8a2.63,2.63,0,0,0,0-5.26Z"/><path class="cls-4" d="M69.8,150.12H61.91a2.63,2.63,0,1,0,0,5.25H69.8a2.63,2.63,0,0,0,0-5.25Z"/><path class="cls-4" d="M88.2,139.6H80.31a2.63,2.63,0,1,0,0,5.26H88.2a2.63,2.63,0,1,0,0-5.26Z"/><path class="cls-4" d="M88.2,150.12H80.31a2.63,2.63,0,1,0,0,5.25H88.2a2.63,2.63,0,1,0,0-5.25Z"/><path class="cls-4" d="M98.71,144.86h7.89a2.63,2.63,0,1,0,0-5.26H98.71a2.63,2.63,0,1,0,0,5.26Z"/><path class="cls-4" d="M106.6,150.12H98.71a2.63,2.63,0,1,0,0,5.25h7.89a2.63,2.63,0,1,0,0-5.25Z"/><path class="cls-2" d="M193.28,110.69H56.72a8,8,0,0,1-7.95-8V87.09a8,8,0,0,1,7.95-8H193.28a8,8,0,0,1,7.95,8v15.64A8,8,0,0,1,193.28,110.69Z"/><path class="cls-3" d="M193.34,79.14H56.65L68.6,69.58a4.4,4.4,0,0,1,2.73-1H178.67a4.33,4.33,0,0,1,2.72,1Z"/><path class="cls-5" d="M56.65,110.69H193.34l-11.94,9.55a4.39,4.39,0,0,1-2.73,1H71.33a4.29,4.29,0,0,1-2.73-1Z"/><path class="cls-4" d="M69.8,92.29H61.91a2.63,2.63,0,1,1,0-5.26H69.8a2.63,2.63,0,0,1,0,5.26Z"/><path class="cls-4" d="M69.8,102.8H61.91a2.63,2.63,0,1,1,0-5.26H69.8a2.63,2.63,0,0,1,0,5.26Z"/><path class="cls-4" d="M88.2,92.29H80.31a2.63,2.63,0,1,1,0-5.26H88.2a2.63,2.63,0,0,1,0,5.26Z"/><path class="cls-4" d="M88.2,102.8H80.31a2.63,2.63,0,0,1,0-5.26H88.2a2.63,2.63,0,0,1,0,5.26Z"/><path class="cls-4" d="M106.6,92.29H98.71a2.63,2.63,0,1,1,0-5.26h7.89a2.63,2.63,0,1,1,0,5.26Z"/><path class="cls-4" d="M106.6,102.8H98.71a2.63,2.63,0,0,1,0-5.26h7.89a2.63,2.63,0,1,1,0,5.26Z"/><circle class="cls-4" cx="127.63" cy="139.6" r="2.63"/><circle class="cls-4" cx="127.63" cy="155.37" r="2.63"/><circle class="cls-4" cx="132.88" cy="147.49" r="2.63"/><circle class="cls-4" cx="138.14" cy="139.6" r="2.63"/><circle class="cls-4" cx="138.14" cy="155.37" r="2.63"/><circle class="cls-4" cx="143.4" cy="147.49" r="2.63"/><circle class="cls-4" cx="148.66" cy="139.6" r="2.63"/><circle class="cls-4" cx="148.66" cy="155.37" r="2.63"/><circle class="cls-4" cx="127.63" cy="87.03" r="2.63"/><circle class="cls-4" cx="127.63" cy="102.8" r="2.63"/><circle class="cls-4" cx="132.88" cy="94.91" r="2.63"/><circle class="cls-4" cx="138.14" cy="87.03" r="2.63"/><circle class="cls-4" cx="138.14" cy="102.8" r="2.63"/><circle class="cls-4" cx="143.4" cy="94.91" r="2.63"/><circle class="cls-4" cx="148.66" cy="87.03" r="2.63"/><circle class="cls-4" cx="148.66" cy="102.8" r="2.63"/><path class="cls-6" d="M91.11,181.37H74.76A2.34,2.34,0,0,1,72.42,179v-5.25h21V179A2.33,2.33,0,0,1,91.11,181.37Z"/><path class="cls-6" d="M175.23,181.37H158.88a2.34,2.34,0,0,1-2.34-2.34v-5.25h21V179A2.33,2.33,0,0,1,175.23,181.37Z"/><circle class="cls-3" cx="182.83" cy="94.91" r="7.89"/><circle class="cls-7" cx="182.83" cy="94.91" r="5.26"/><circle class="cls-3" cx="182.83" cy="147.49" r="7.89"/><circle class="cls-7" cx="182.83" cy="147.49" r="5.26"/></g></svg>