<svg xmlns="http://www.w3.org/2000/svg" viewBox="0 0 250 250"><defs><style>.cls-1{fill:#aa2b2b;}.cls-2{fill:#f3a845;}.cls-3{fill:#939393;}.cls-4{fill:#eecc61;}.cls-5{fill:#474747;}.cls-6{fill:#559b38;}.cls-7{fill:#6bc148;}.cls-8{fill:#7cdf54;}.cls-9{fill:#686868;}.cls-10{fill:#fff;}.cls-11{fill:#6c6c6c;}</style></defs><title>materias</title><g id="Camada_2" data-name="Camada 2"><circle class="cls-1" cx="125" cy="125" r="124.5"/></g><g id="Camada_4" data-name="Camada 4"><path class="cls-2" d="M102.27,68.18h9.09v9.09h-9.09Z"/><path class="cls-3" d="M104.54,59.09h4.55v9.09h-4.55Z"/><path class="cls-4" d="M102.27,75h2.27a4.55,4.55,0,0,0,4.55-4.55V68.18h-6.82Z"/><path class="cls-2" d="M84.09,68.18h9.09v9.09H84.09Z"/><path class="cls-3" d="M86.36,59.09h4.55v9.09H86.36Z"/><path class="cls-4" d="M84.09,75h2.27a4.55,4.55,0,0,0,4.55-4.55V68.18H84.09Z"/><path class="cls-2" d="M63.63,84.09h9.1v9.09h-9.1Z"/><path class="cls-4" d="M63.63,90.91h2.28a4.55,4.55,0,0,0,4.54-4.55V84.09H63.63Z"/><path class="cls-2" d="M63.63,102.27h9.1v9.09h-9.1Z"/><path class="cls-4" d="M63.63,109.09h2.28a4.54,4.54,0,0,0,4.54-4.55v-2.27H63.63Z"/><path class="cls-2" d="M63.63,120.45h9.1v9.1h-9.1Z"/><path class="cls-4" d="M63.63,127.27h2.28a4.54,4.54,0,0,0,4.54-4.54v-2.28H63.63Z"/><path class="cls-2" d="M63.63,138.64h9.1v9.09h-9.1Z"/><path class="cls-4" d="M63.63,145.46h2.28a4.55,4.55,0,0,0,4.54-4.55v-2.27H63.63Z"/><path class="cls-2" d="M63.63,156.82h9.1v9.09h-9.1Z"/><path class="cls-4" d="M63.63,163.64h2.28a4.55,4.55,0,0,0,4.54-4.55v-2.27H63.63Z"/><path class="cls-2" d="M177.27,84.09h9.1v9.09h-9.1Z"/><path class="cls-4" d="M177.27,90.91h2.28a4.55,4.55,0,0,0,4.54-4.55V84.09h-6.82Z"/><path class="cls-2" d="M177.27,102.27h9.1v9.09h-9.1Z"/><path class="cls-4" d="M177.27,109.09h2.28a4.54,4.54,0,0,0,4.54-4.55v-2.27h-6.82Z"/><path class="cls-2" d="M177.27,120.45h9.1v9.1h-9.1Z"/><path class="cls-4" d="M177.27,127.27h2.28a4.54,4.54,0,0,0,4.54-4.54v-2.28h-6.82Z"/><path class="cls-2" d="M177.27,138.64h9.1v9.09h-9.1Z"/><path class="cls-4" d="M177.27,145.46h2.28a4.55,4.55,0,0,0,4.54-4.55v-2.27h-6.82Z"/><path class="cls-2" d="M177.27,156.82h9.1v9.09h-9.1Z"/><path class="cls-4" d="M177.27,163.64h2.28a4.55,4.55,0,0,0,4.54-4.55v-2.27h-6.82Z"/><path class="cls-5" d="M72.73,77.27H177.27v95.46H72.73Z"/><path class="cls-6" d="M81.82,86.36h86.36v77.28H81.82Z"/><path class="cls-7" d="M81.82,86.36v68.19h65.91a9.09,9.09,0,0,0,9.09-9.09V86.36Z"/><rect class="cls-8" x="88.63" y="95.45" width="56.82" height="45.46" rx="6.82"/><path class="cls-2" d="M156.82,68.18h9.09v9.09h-9.09Z"/><path class="cls-3" d="M159.09,59.09h4.55v9.09h-4.55Z"/><path class="cls-3" d="M186.37,86.36h9.09v4.55h-9.09Z"/><path class="cls-3" d="M186.37,104.54h9.09v4.55h-9.09Z"/><path class="cls-3" d="M186.37,122.73h9.09v4.54h-9.09Z"/><path class="cls-3" d="M186.37,140.91h9.09v4.55h-9.09Z"/><path class="cls-3" d="M186.37,159.09h9.09v4.55h-9.09Z"/><path class="cls-3" d="M54.54,86.36h9.09v4.55H54.54Z"/><path class="cls-3" d="M54.54,104.54h9.09v4.55H54.54Z"/><path class="cls-3" d="M54.54,122.73h9.09v4.54H54.54Z"/><path class="cls-3" d="M54.54,140.91h9.09v4.55H54.54Z"/><path class="cls-3" d="M54.54,159.09h9.09v4.55H54.54Z"/><path class="cls-3" d="M86.36,181.82h4.55v9.09H86.36Z"/><path class="cls-3" d="M104.54,181.82h4.55v9.09h-4.55Z"/><path class="cls-3" d="M122.73,181.82h4.54v9.09h-4.54Z"/><path class="cls-3" d="M140.91,181.82h4.55v9.09h-4.55Z"/><path class="cls-3" d="M159.09,181.82h4.55v9.09h-4.55Z"/><path class="cls-9" d="M104.54,104.54h40.92v40.92H104.54Z"/><path class="cls-10" d="M122.73,145.46h4.54v18.18h-4.54Z"/><path class="cls-10" d="M109.09,163.64h-4.55v-9.09a2.28,2.28,0,0,1,2.28-2.28h4.54v-6.81h4.55v9.09a2.27,2.27,0,0,1-2.27,2.27h-4.55Z"/><path class="cls-10" d="M145.46,163.64h-4.55v-6.82h-4.55a2.27,2.27,0,0,1-2.27-2.27v-9.09h4.55v6.81h4.54a2.28,2.28,0,0,1,2.28,2.28Z"/><path class="cls-10" d="M122.73,86.36h4.54v18.18h-4.54Z"/><path class="cls-10" d="M115.91,104.54h-4.55V97.73h-4.54a2.28,2.28,0,0,1-2.28-2.28V86.36h4.55v6.82h4.55a2.27,2.27,0,0,1,2.27,2.27Z"/><path class="cls-10" d="M138.64,104.54h-4.55V95.45a2.27,2.27,0,0,1,2.27-2.27h4.55V86.36h4.55v9.09a2.28,2.28,0,0,1-2.28,2.28h-4.54Z"/><path class="cls-5" d="M113.64,113.64h22.72v22.72H113.64Z"/><path class="cls-2" d="M120.45,104.54h9.1v9.1h-9.1Z"/><path class="cls-10" d="M156.82,93.18h4.55v4.55h-4.55Z"/><path class="cls-10" d="M156.82,152.27h4.55v4.55h-4.55Z"/><path class="cls-10" d="M88.63,93.18h4.55v4.55H88.63Z"/><path class="cls-10" d="M88.63,152.27h4.55v4.55H88.63Z"/><path class="cls-4" d="M120.45,104.54v6.82h2.28a4.54,4.54,0,0,0,4.54-4.54v-2.28Z"/><path class="cls-2" d="M120.45,136.36h9.1v9.1h-9.1Z"/><path class="cls-4" d="M120.45,136.36v6.82h2.28a4.54,4.54,0,0,0,4.54-4.54v-2.28Z"/><path class="cls-2" d="M136.36,120.45h9.1v9.1h-9.1Z"/><path class="cls-4" d="M136.36,120.45v6.82h2.28a4.54,4.54,0,0,0,4.54-4.54v-2.28Z"/><path class="cls-2" d="M104.54,120.45h9.1v9.1h-9.1Z"/><path class="cls-4" d="M104.54,120.45v6.82h2.28a4.54,4.54,0,0,0,4.54-4.54v-2.28Z"/><path class="cls-11" d="M113.64,113.64v18.18H125a6.82,6.82,0,0,0,6.82-6.82V113.64Z"/><rect class="cls-3" x="118.18" y="118.18" width="9.09" height="9.09" rx="2.27"/><path class="cls-4" d="M156.82,75h2.27a4.55,4.55,0,0,0,4.55-4.55V68.18h-6.82Z"/><path class="cls-2" d="M138.64,68.18h9.09v9.09h-9.09Z"/><path class="cls-3" d="M140.91,59.09h4.55v9.09h-4.55Z"/><path class="cls-4" d="M138.64,75h2.27a4.55,4.55,0,0,0,4.55-4.55V68.18h-6.82Z"/><path class="cls-2" d="M120.45,68.18h9.1v9.09h-9.1Z"/><path class="cls-3" d="M122.73,59.09h4.54v9.09h-4.54Z"/><path class="cls-4" d="M120.45,75h2.28a4.55,4.55,0,0,0,4.54-4.55V68.18h-6.82Z"/><path class="cls-2" d="M102.27,172.73h9.09v9.09h-9.09Z"/><path class="cls-4" d="M102.27,179.55h2.27a4.55,4.55,0,0,0,4.55-4.55v-2.27h-6.82Z"/><path class="cls-2" d="M84.09,172.73h9.09v9.09H84.09Z"/><path class="cls-4" d="M84.09,179.55h2.27A4.55,4.55,0,0,0,90.91,175v-2.27H84.09Z"/><path class="cls-2" d="M156.82,172.73h9.09v9.09h-9.09Z"/><path class="cls-4" d="M156.82,179.55h2.27a4.55,4.55,0,0,0,4.55-4.55v-2.27h-6.82Z"/><path class="cls-2" d="M138.64,172.73h9.09v9.09h-9.09Z"/><path class="cls-4" d="M138.64,179.55h2.27a4.55,4.55,0,0,0,4.55-4.55v-2.27h-6.82Z"/><path class="cls-2" d="M120.45,172.73h9.1v9.09h-9.1Z"/><path class="cls-4" d="M120.45,179.55h2.28a4.55,4.55,0,0,0,4.54-4.55v-2.27h-6.82Z"/></g></svg>