<svg xmlns="http://www.w3.org/2000/svg" viewBox="0 0 250 250"><defs><style>.cls-1{fill:#aa2b2b;}.cls-2{fill:#e04c34;}.cls-3{fill:#f1d24b;}.cls-4{fill:#edc100;}.cls-5{fill:#f8e8ab;}.cls-6{fill:#f4edc7;}.cls-7{fill:#a1693e;}.cls-8{fill:#ed9a00;}.cls-9{fill:#3180bc;}.cls-10{fill:#ba3a23;}.cls-11{fill:#4397d5;}</style></defs><title>materias</title><g id="Camada_2" data-name="Camada 2"><circle class="cls-1" cx="125" cy="125" r="124.5"/></g><g id="Camada_3" data-name="Camada 3"><g id="Page-1"><g id="_008---Physics-Book" data-name="008---Physics-Book"><path id="Shape" class="cls-2" d="M197.88,72.22V177.76a5.05,5.05,0,0,1-5,5H146.31a7.43,7.43,0,0,0-7.06,5,15.08,15.08,0,0,1-28.5,0,7.43,7.43,0,0,0-7.06-5H57.15a5.05,5.05,0,0,1-5-5V72.22a5.05,5.05,0,0,1,5-5h5v103a2.51,2.51,0,0,0,2.51,2.52H185.31a2.51,2.51,0,0,0,2.51-2.52v-103h5A5.05,5.05,0,0,1,197.88,72.22Z"/><path id="Shape-2" data-name="Shape" class="cls-3" d="M125,172.74H64.69a2.51,2.51,0,0,1-2.51-2.52v-7.54H115A10.06,10.06,0,0,1,125,172.74Z"/><path id="Shape-3" data-name="Shape" class="cls-4" d="M187.82,162.68v7.54a2.51,2.51,0,0,1-2.51,2.52H125a10.06,10.06,0,0,1,10.05-10.06Z"/><path id="Shape-4" data-name="Shape" class="cls-5" d="M187.82,57.14V162.68H135.05A10.06,10.06,0,0,0,125,172.74V62.17a10.06,10.06,0,0,1,10.05-10.06H182.8A5,5,0,0,1,187.82,57.14Z"/><path id="Shape-5" data-name="Shape" class="cls-6" d="M125,62.17V172.74a10.06,10.06,0,0,0-10-10.06H62.18V57.14a5,5,0,0,1,5-5H115A10.06,10.06,0,0,1,125,62.17Z"/><path id="Shape-6" data-name="Shape" class="cls-7" d="M99.87,132.53H72.23a2.52,2.52,0,1,1,0-5H99.87a2.52,2.52,0,0,1,0,5Z"/><path id="Shape-7" data-name="Shape" class="cls-7" d="M99.87,152.63H72.23a2.51,2.51,0,1,1,0-5H99.87a2.51,2.51,0,0,1,0,5Z"/><path id="Shape-8" data-name="Shape" class="cls-7" d="M112.44,142.58H92.33a2.51,2.51,0,1,1,0-5h20.11a2.51,2.51,0,1,1,0,5Z"/><path id="Shape-9" data-name="Shape" class="cls-7" d="M82.28,142.58h-10a2.51,2.51,0,1,1,0-5h10a2.51,2.51,0,1,1,0,5Z"/><circle id="Oval" class="cls-8" cx="84.79" cy="87.3" r="7.54"/><circle id="Oval-2" data-name="Oval" class="cls-8" cx="99.87" cy="109.91" r="7.54"/><path id="Rectangle-path" class="cls-9" d="M104.9,69.71h5v40.2h-5Z"/><path id="Rectangle-path-2" data-name="Rectangle-path" class="cls-9" d="M89.82,87.3h5v22.61h-5Z"/><path id="Rectangle-path-3" data-name="Rectangle-path" class="cls-9" d="M82.28,69.71h5V79.76h-5Z"/><path id="Shape-10" data-name="Shape" class="cls-9" d="M80.5,105.62l-.73.74V87.3h-5v19.06l-.74-.74a2.51,2.51,0,0,0-3.55,3.56l5,5a2.51,2.51,0,0,0,3.55,0l5-5a2.52,2.52,0,0,0-3.56-3.56Z"/><path id="Shape-11" data-name="Shape" class="cls-7" d="M112.44,132.53h-2.52a2.52,2.52,0,0,1,0-5h2.52a2.52,2.52,0,0,1,0,5Z"/><path id="Shape-12" data-name="Shape" class="cls-7" d="M162.69,72.22H135.05a2.52,2.52,0,0,1,0-5h27.64a2.52,2.52,0,1,1,0,5Z"/><path id="Shape-13" data-name="Shape" class="cls-7" d="M157.67,92.32H135.05a2.51,2.51,0,0,1,0-5h22.62a2.51,2.51,0,1,1,0,5Z"/><path id="Shape-14" data-name="Shape" class="cls-7" d="M175.26,82.27h-20.1a2.52,2.52,0,1,1,0-5h20.1a2.52,2.52,0,0,1,0,5Z"/><path id="Shape-15" data-name="Shape" class="cls-7" d="M145.1,82.27h-10a2.52,2.52,0,0,1,0-5h10a2.52,2.52,0,1,1,0,5Z"/><path id="Shape-16" data-name="Shape" class="cls-7" d="M175.26,72.22h-2.51a2.52,2.52,0,1,1,0-5h2.51a2.52,2.52,0,0,1,0,5Z"/><path id="Shape-17" data-name="Shape" class="cls-10" d="M160.59,152.63H149.72a2.2,2.2,0,0,1-1.48-3.74l5.43-5.67a2,2,0,0,1,1.49-.64,2,2,0,0,1,1.48.64l5.43,5.67a2.2,2.2,0,0,1-1.48,3.74Z"/><path id="Shape-18" data-name="Shape" class="cls-8" d="M148,135.19a7.53,7.53,0,1,0-6.15,2.32"/><circle id="Oval-3" data-name="Oval" class="cls-8" cx="170.23" cy="104.89" r="7.54"/><path id="Shape-19" data-name="Shape" class="cls-2" d="M135.05,142.58a2.51,2.51,0,0,1-.88-4.87l40.2-15.07a2.51,2.51,0,0,1,3.36,2.77,2.54,2.54,0,0,1-1.6,1.94l-40.2,15.07A2.41,2.41,0,0,1,135.05,142.58Z"/><path id="Shape-20" data-name="Shape" class="cls-11" d="M84.79,97.35A10.05,10.05,0,1,1,91.9,94.4,10.05,10.05,0,0,1,84.79,97.35Zm0-15.08a5,5,0,1,0,5,5A5,5,0,0,0,84.79,82.27Z"/><path id="Shape-21" data-name="Shape" class="cls-11" d="M99.87,120a10,10,0,1,1,10-10A10.05,10.05,0,0,1,99.87,120Zm0-15.07a5,5,0,1,0,5,5A5,5,0,0,0,99.87,104.89Z"/><path id="Shape-22" data-name="Shape" class="cls-2" d="M112.44,72.22H72.23a2.52,2.52,0,1,1,0-5h40.21a2.52,2.52,0,0,1,0,5Z"/></g></g></g></svg>