<svg xmlns="http://www.w3.org/2000/svg" viewBox="0 0 250 250"><defs><style>.cls-1{fill:#aa2b2b;}.cls-2{fill:#fab400;}.cls-3{fill:#dc9600;}.cls-4{fill:#c80a50;}.cls-5{fill:#f0c8a0;}.cls-6{fill:#0a5078;}.cls-7{fill:#f0f0f0;}.cls-8{fill:#00a0c8;}.cls-9{fill:#00325a;}.cls-10{fill:#0082aa;}</style></defs><title>materias</title><g id="Camada_2" data-name="Camada 2"><circle class="cls-1" cx="125" cy="125" r="124.5"/></g><g id="Camada_3" data-name="Camada 3"><g id="Icons"><path class="cls-2" d="M77.77,188H146l26.24-26.24V62a10.5,10.5,0,0,0-10.49-10.5h-84A10.5,10.5,0,0,0,67.27,62V177.48A10.5,10.5,0,0,0,77.77,188Z"/><path class="cls-3" d="M159.11,125H80.39a2.63,2.63,0,0,1,0-5.25h78.72a2.63,2.63,0,1,1,0,5.25Z"/><path class="cls-3" d="M159.11,135.5H80.39a2.63,2.63,0,0,1,0-5.25h78.72a2.63,2.63,0,1,1,0,5.25Z"/><path class="cls-3" d="M159.11,146H80.39a2.63,2.63,0,0,1,0-5.25h78.72a2.63,2.63,0,1,1,0,5.25Z"/><path class="cls-3" d="M159.11,156.49H80.39a2.63,2.63,0,0,1,0-5.25h78.72a2.63,2.63,0,1,1,0,5.25Z"/><path class="cls-3" d="M88.26,83H77.77a2.63,2.63,0,1,0,0,5.25H88.26a2.63,2.63,0,0,1,2.63,2.63v2.62H83a7.88,7.88,0,0,0,0,15.75h10.5a2.62,2.62,0,0,0,2.62-2.63V90.89A7.89,7.89,0,0,0,88.26,83Zm2.63,21H83a2.63,2.63,0,0,1,0-5.25h7.88Z"/><path class="cls-3" d="M119.75,93.51h-2.62V90.89a2.63,2.63,0,1,0-5.25,0v2.62h-2.62a2.63,2.63,0,1,0,0,5.25h2.62v2.62a2.63,2.63,0,1,0,5.25,0V98.76h2.62a2.63,2.63,0,1,0,0-5.25Z"/><path class="cls-3" d="M135.5,83h-2.63V75.14a2.63,2.63,0,0,0-5.25,0v31.49a2.63,2.63,0,0,0,2.63,2.63h5.25a13.13,13.13,0,0,0,0-26.25Zm0,21h-2.63V88.26h2.63a7.88,7.88,0,0,1,0,15.75Z"/><path class="cls-3" d="M111.88,83a2.63,2.63,0,0,0-2.62-2.62h-7.8a2.59,2.59,0,0,1,1.37-1.73L109,75.59a5.21,5.21,0,0,0,2.9-4.69v-1a5.25,5.25,0,0,0-5.25-5.24H98.76a2.62,2.62,0,1,0,0,5.24h7.87v1L100.49,74a7.82,7.82,0,0,0-4.36,7v2a2.63,2.63,0,0,0,2.63,2.63h10.5A2.63,2.63,0,0,0,111.88,83Z"/><path class="cls-3" d="M155.32,78.66l6.14-3.07a5.21,5.21,0,0,0,2.9-4.69v-1a5.25,5.25,0,0,0-5.25-5.24h-7.87a2.62,2.62,0,0,0,0,5.24h7.87v1L153,74a7.83,7.83,0,0,0-4.35,7v2a2.62,2.62,0,0,0,2.62,2.63h10.5a2.63,2.63,0,0,0,0-5.25h-7.8A2.61,2.61,0,0,1,155.32,78.66Z"/><path class="cls-3" d="M172.23,161.74H156.49A10.5,10.5,0,0,0,146,172.23V188Z"/><path class="cls-4" d="M177.48,93.51h21v84h-21Z"/><path class="cls-5" d="M198.48,177.48h-21l5.25,10.5h10.5Z"/><path class="cls-6" d="M182.73,188l2.9,5.8a2.63,2.63,0,0,0,4.7,0l2.9-5.8Z"/><path class="cls-7" d="M177.48,88.26h21v5.25h-21Z"/><path class="cls-6" d="M193.23,72.52h-10.5a5.25,5.25,0,0,0-5.25,5.25V88.26h21V77.77A5.25,5.25,0,0,0,193.23,72.52Z"/><path class="cls-3" d="M117.13,104H67.27v73.47A10.5,10.5,0,0,0,77.77,188h44.61V109.26A5.25,5.25,0,0,0,117.13,104Z"/><path class="cls-8" d="M114.5,104H56.77a5.25,5.25,0,0,0-5.25,5.25v84a5.25,5.25,0,0,0,5.25,5.25H114.5a5.25,5.25,0,0,0,5.25-5.25v-84A5.25,5.25,0,0,0,114.5,104Z"/><path class="cls-6" d="M111.88,109.26H59.4a2.62,2.62,0,0,0-2.63,2.62v15.74a2.63,2.63,0,0,0,2.63,2.63h52.48a2.62,2.62,0,0,0,2.62-2.63V111.88A2.62,2.62,0,0,0,111.88,109.26Z"/><path class="cls-9" d="M111.88,109.26H59.4a2.62,2.62,0,0,0-2.63,2.62v2.62a2.62,2.62,0,0,1,2.63-2.62h52.48a2.62,2.62,0,0,1,2.62,2.62v-2.62A2.62,2.62,0,0,0,111.88,109.26Z"/><path class="cls-10" d="M64.65,138.12H59.4a2.63,2.63,0,0,0-2.63,2.62V146a2.63,2.63,0,0,0,2.63,2.63h5.25A2.63,2.63,0,0,0,67.27,146v-5.25A2.63,2.63,0,0,0,64.65,138.12Z"/><path class="cls-10" d="M80.39,138.12H75.14a2.62,2.62,0,0,0-2.62,2.62V146a2.62,2.62,0,0,0,2.62,2.63h5.25A2.62,2.62,0,0,0,83,146v-5.25A2.62,2.62,0,0,0,80.39,138.12Z"/><path class="cls-10" d="M96.13,138.12H90.89a2.63,2.63,0,0,0-2.63,2.62V146a2.63,2.63,0,0,0,2.63,2.63h5.24A2.63,2.63,0,0,0,98.76,146v-5.25A2.63,2.63,0,0,0,96.13,138.12Z"/><path class="cls-10" d="M111.88,138.12h-5.25a2.62,2.62,0,0,0-2.62,2.62V146a2.62,2.62,0,0,0,2.62,2.63h5.25A2.62,2.62,0,0,0,114.5,146v-5.25A2.62,2.62,0,0,0,111.88,138.12Z"/><path class="cls-10" d="M64.65,153.87H59.4a2.62,2.62,0,0,0-2.63,2.62v5.25a2.62,2.62,0,0,0,2.63,2.62h5.25a2.62,2.62,0,0,0,2.62-2.62v-5.25A2.62,2.62,0,0,0,64.65,153.87Z"/><path class="cls-10" d="M80.39,153.87H75.14a2.62,2.62,0,0,0-2.62,2.62v5.25a2.62,2.62,0,0,0,2.62,2.62h5.25A2.62,2.62,0,0,0,83,161.74v-5.25A2.62,2.62,0,0,0,80.39,153.87Z"/><path class="cls-10" d="M96.13,153.87H90.89a2.62,2.62,0,0,0-2.63,2.62v5.25a2.62,2.62,0,0,0,2.63,2.62h5.24a2.62,2.62,0,0,0,2.63-2.62v-5.25A2.62,2.62,0,0,0,96.13,153.87Z"/><path class="cls-10" d="M111.88,153.87h-5.25a2.62,2.62,0,0,0-2.62,2.62v5.25a2.62,2.62,0,0,0,2.62,2.62h5.25a2.62,2.62,0,0,0,2.62-2.62v-5.25A2.62,2.62,0,0,0,111.88,153.87Z"/><path class="cls-10" d="M64.65,169.61H59.4a2.63,2.63,0,0,0-2.63,2.62v5.25a2.63,2.63,0,0,0,2.63,2.63h5.25a2.63,2.63,0,0,0,2.62-2.63v-5.25A2.63,2.63,0,0,0,64.65,169.61Z"/><path class="cls-10" d="M80.39,169.61H75.14a2.62,2.62,0,0,0-2.62,2.62v5.25a2.62,2.62,0,0,0,2.62,2.63h5.25A2.62,2.62,0,0,0,83,177.48v-5.25A2.62,2.62,0,0,0,80.39,169.61Z"/><path class="cls-10" d="M96.13,169.61H90.89a2.63,2.63,0,0,0-2.63,2.62v5.25a2.63,2.63,0,0,0,2.63,2.63h5.24a2.63,2.63,0,0,0,2.63-2.63v-5.25A2.63,2.63,0,0,0,96.13,169.61Z"/><path class="cls-10" d="M111.88,169.61h-5.25a2.62,2.62,0,0,0-2.62,2.62v21a2.62,2.62,0,0,0,2.62,2.62h5.25a2.62,2.62,0,0,0,2.62-2.62v-21A2.62,2.62,0,0,0,111.88,169.61Z"/><path class="cls-10" d="M64.65,185.35H59.4A2.63,2.63,0,0,0,56.77,188v5.25a2.62,2.62,0,0,0,2.63,2.62h5.25a2.62,2.62,0,0,0,2.62-2.62V188A2.63,2.63,0,0,0,64.65,185.35Z"/><path class="cls-10" d="M80.39,185.35H75.14A2.62,2.62,0,0,0,72.52,188v5.25a2.62,2.62,0,0,0,2.62,2.62h5.25A2.62,2.62,0,0,0,83,193.23V188A2.62,2.62,0,0,0,80.39,185.35Z"/><path class="cls-10" d="M96.13,185.35H90.89A2.63,2.63,0,0,0,88.26,188v5.25a2.62,2.62,0,0,0,2.63,2.62h5.24a2.62,2.62,0,0,0,2.63-2.62V188A2.63,2.63,0,0,0,96.13,185.35Z"/><path class="cls-2" d="M64.65,135.5H59.4a2.62,2.62,0,0,0-2.63,2.62v5.25A2.62,2.62,0,0,0,59.4,146h5.25a2.62,2.62,0,0,0,2.62-2.62v-5.25A2.62,2.62,0,0,0,64.65,135.5Z"/><path class="cls-2" d="M80.39,135.5H75.14a2.62,2.62,0,0,0-2.62,2.62v5.25A2.62,2.62,0,0,0,75.14,146h5.25A2.62,2.62,0,0,0,83,143.37v-5.25A2.62,2.62,0,0,0,80.39,135.5Z"/><path class="cls-2" d="M96.13,135.5H90.89a2.62,2.62,0,0,0-2.63,2.62v5.25A2.62,2.62,0,0,0,90.89,146h5.24a2.62,2.62,0,0,0,2.63-2.62v-5.25A2.62,2.62,0,0,0,96.13,135.5Z"/><path class="cls-2" d="M111.88,135.5h-5.25a2.62,2.62,0,0,0-2.62,2.62v5.25a2.62,2.62,0,0,0,2.62,2.62h5.25a2.62,2.62,0,0,0,2.62-2.62v-5.25A2.62,2.62,0,0,0,111.88,135.5Z"/><path class="cls-7" d="M64.65,151.24H59.4a2.63,2.63,0,0,0-2.63,2.63v5.24a2.63,2.63,0,0,0,2.63,2.63h5.25a2.63,2.63,0,0,0,2.62-2.63v-5.24A2.63,2.63,0,0,0,64.65,151.24Z"/><path class="cls-7" d="M80.39,151.24H75.14a2.62,2.62,0,0,0-2.62,2.63v5.24a2.62,2.62,0,0,0,2.62,2.63h5.25A2.62,2.62,0,0,0,83,159.11v-5.24A2.62,2.62,0,0,0,80.39,151.24Z"/><path class="cls-7" d="M96.13,151.24H90.89a2.63,2.63,0,0,0-2.63,2.63v5.24a2.63,2.63,0,0,0,2.63,2.63h5.24a2.63,2.63,0,0,0,2.63-2.63v-5.24A2.63,2.63,0,0,0,96.13,151.24Z"/><path class="cls-7" d="M111.88,151.24h-5.25a2.62,2.62,0,0,0-2.62,2.63v5.24a2.62,2.62,0,0,0,2.62,2.63h5.25a2.62,2.62,0,0,0,2.62-2.63v-5.24A2.62,2.62,0,0,0,111.88,151.24Z"/><path class="cls-7" d="M64.65,167H59.4a2.62,2.62,0,0,0-2.63,2.62v5.25a2.62,2.62,0,0,0,2.63,2.62h5.25a2.62,2.62,0,0,0,2.62-2.62v-5.25A2.62,2.62,0,0,0,64.65,167Z"/><path class="cls-7" d="M80.39,167H75.14a2.62,2.62,0,0,0-2.62,2.62v5.25a2.62,2.62,0,0,0,2.62,2.62h5.25A2.62,2.62,0,0,0,83,174.86v-5.25A2.62,2.62,0,0,0,80.39,167Z"/><path class="cls-7" d="M96.13,167H90.89a2.62,2.62,0,0,0-2.63,2.62v5.25a2.62,2.62,0,0,0,2.63,2.62h5.24a2.62,2.62,0,0,0,2.63-2.62v-5.25A2.62,2.62,0,0,0,96.13,167Z"/><path class="cls-4" d="M111.88,167h-5.25a2.62,2.62,0,0,0-2.62,2.62v21a2.62,2.62,0,0,0,2.62,2.63h5.25a2.62,2.62,0,0,0,2.62-2.63v-21A2.62,2.62,0,0,0,111.88,167Z"/><path class="cls-7" d="M64.65,182.73H59.4a2.63,2.63,0,0,0-2.63,2.62v5.25a2.63,2.63,0,0,0,2.63,2.63h5.25a2.63,2.63,0,0,0,2.62-2.63v-5.25A2.63,2.63,0,0,0,64.65,182.73Z"/><path class="cls-7" d="M80.39,182.73H75.14a2.62,2.62,0,0,0-2.62,2.62v5.25a2.62,2.62,0,0,0,2.62,2.63h5.25A2.62,2.62,0,0,0,83,190.6v-5.25A2.62,2.62,0,0,0,80.39,182.73Z"/><path class="cls-7" d="M96.13,182.73H90.89a2.63,2.63,0,0,0-2.63,2.62v5.25a2.63,2.63,0,0,0,2.63,2.63h5.24a2.63,2.63,0,0,0,2.63-2.63v-5.25A2.63,2.63,0,0,0,96.13,182.73Z"/></g></g></svg>