<svg xmlns="http://www.w3.org/2000/svg" viewBox="0 0 250 250"><defs><style>.cls-1{fill:#aa2b2b;}.cls-2{fill:#c9fff7;}.cls-3{fill:#f7d360;}.cls-4{fill:#72cec0;}.cls-5{fill:#e58e13;}.cls-6{fill:#e6e6e6;}.cls-7{fill:#ccc;}.cls-8{fill:#fc5f61;}.cls-9{fill:#e83842;}.cls-10{fill:#fff;}</style></defs><title>materias</title><g id="Camada_2" data-name="Camada 2"><circle class="cls-1" cx="125" cy="125" r="124.5"/></g><g id="Camada_3" data-name="Camada 3"><path class="cls-2" d="M172,112V82.92H135.82V112A44.56,44.56,0,1,0,172,112Z"/><path class="cls-3" d="M189.46,152.72A35.54,35.54,0,1,1,129.3,127.1h49.24A35.56,35.56,0,0,1,189.46,152.72Z"/><path class="cls-4" d="M144,112v-8a7.89,7.89,0,0,1,7.89-7.89H172V87.43l-7.18-6.53-6.76-1.81-22.27,8.34V112a44.56,44.56,0,0,0,17.79,85.27c-13.4-.31-24.21-20.14-24.21-44.55C129.4,134.56,135.38,118.94,144,112Z"/><path class="cls-5" d="M136.21,183.52a35.53,35.53,0,0,1-6.91-56.42h4.56a71.72,71.72,0,0,0-4.46,25.62C129.4,164.67,132,175.51,136.21,183.52Z"/><path class="cls-6" d="M138.64,177.9l-28.93-50.12V101.85H82.21v25.93L53.28,177.9a12.91,12.91,0,0,0,11.18,19.37h63A12.91,12.91,0,0,0,138.64,177.9Z"/><path class="cls-7" d="M109.71,101.85l-8.42-4.73-16.14.17-2.94,4.56v25.93L53.28,177.9a12.91,12.91,0,0,0,11.18,19.37h17.2c-4.52,0-7.34-10.76-5.08-19.37l13.14-50.12V114.47a5,5,0,0,1,5-5h15Z"/><path class="cls-7" d="M119.68,96a5.86,5.86,0,0,1-5.86,5.86H78.1a5.86,5.86,0,1,1,0-11.72h35.72A5.87,5.87,0,0,1,119.68,96Z"/><path class="cls-6" d="M119.68,96a5.86,5.86,0,0,1-5.86,5.86H92.31a5.86,5.86,0,1,1,0-11.72h21.51A5.87,5.87,0,0,1,119.68,96Z"/><path class="cls-4" d="M182.12,81.57a5.86,5.86,0,0,1-5.86,5.86H132.08a5.86,5.86,0,0,1,0-11.72h44.18a5.87,5.87,0,0,1,5.86,5.86Z"/><path class="cls-2" d="M182.12,81.57a5.86,5.86,0,0,1-5.86,5.86H145.77a5.86,5.86,0,0,1,0-11.72h30.49a5.87,5.87,0,0,1,5.86,5.86Z"/><path class="cls-8" d="M130.83,186.31a3.77,3.77,0,0,1-3.37,1.94h-63a3.89,3.89,0,0,1-3.38-5.84l21.27-36.83h27.22l21.26,36.83A3.78,3.78,0,0,1,130.83,186.31Z"/><path class="cls-9" d="M76.58,177.9a26.72,26.72,0,0,0-.52,10.35H64.46a3.89,3.89,0,0,1-3.38-5.84l21.27-36.83h2.7Z"/><path class="cls-9" d="M100.8,171.27a2.25,2.25,0,1,1,2.23-1.92A2.27,2.27,0,0,1,100.8,171.27Z"/><path class="cls-9" d="M90.86,78.87a2.25,2.25,0,1,1,2.2-1.75A2.27,2.27,0,0,1,90.86,78.87Z"/><path class="cls-9" d="M99.83,70.3A2.25,2.25,0,1,1,101,66.14a2.25,2.25,0,0,1-1.21,4.16Z"/><path class="cls-9" d="M95,57.23a2.25,2.25,0,1,1,2.18-1.71A2.27,2.27,0,0,1,95,57.23Z"/><path class="cls-10" d="M173.71,141.07a2.25,2.25,0,1,1,2.26-2.25A2.27,2.27,0,0,1,173.71,141.07Z"/><path class="cls-10" d="M175.28,156.11a2.26,2.26,0,1,1,2.23-1.92A2.27,2.27,0,0,1,175.28,156.11Z"/><path class="cls-10" d="M145.88,173.08a2.27,2.27,0,0,1-2.13-1.55,2.25,2.25,0,0,1,.92-2.6,2.25,2.25,0,1,1,1.21,4.15Z"/><path class="cls-10" d="M135.52,154.14a2.27,2.27,0,0,1-1.48-3.95,2.25,2.25,0,1,1,1.48,3.95Z"/><path class="cls-10" d="M163,148.73a2.25,2.25,0,1,1,2.21-1.81A2.27,2.27,0,0,1,163,148.73Z"/><path class="cls-9" d="M85,175.94a2.25,2.25,0,1,1,2.21-1.81A2.27,2.27,0,0,1,85,175.94Z"/><path class="cls-9" d="M90.89,161.36a2.25,2.25,0,1,1,2.22-1.87A2.28,2.28,0,0,1,90.89,161.36Z"/></g></svg>