<svg xmlns="http://www.w3.org/2000/svg" viewBox="0 0 250 250"><defs><style>.cls-1{fill:#aa2b2b;}.cls-2{fill:#dae5ef;}.cls-3{fill:#3e4347;}.cls-4{fill:#5a5f63;}.cls-5{fill:#9a795f;}.cls-6{fill:#e9b02c;}.cls-7{fill:#7fb239;}.cls-8{fill:#f4c534;}.cls-9{fill:#8cc63e;}.cls-10{fill:#a5856d;}.cls-11{fill:#e24b4b;}.cls-12{fill:#d03f3f;}.cls-13{opacity:0.1;}.cls-14,.cls-15{fill:#fff;}.cls-15{opacity:0.15;isolation:isolate;}</style></defs><title>materias</title><g id="Camada_2" data-name="Camada 2"><circle class="cls-1" cx="125" cy="125" r="124.5"/></g><g id="Camada_1" data-name="Camada 1"><path class="cls-2" d="M177.38,116.45l17.16,60.66a2.55,2.55,0,0,1-1.74,3.34l-43.22,13a4.28,4.28,0,0,1-2.19,0l-41-11.75L59.43,194.51c-2.7.74-4.68-1.14-4-3.74l18.91-66.84a3.28,3.28,0,0,1,2.6-2l34.24-6.81a3.89,3.89,0,0,1,1.52,0l29.65,6.1,31-6.61C175.05,114.29,177,115.2,177.38,116.45Z"/><polygon class="cls-3" points="106.96 174.7 64.14 186.04 79.5 125.41 111.68 118.87 106.96 174.7"/><polygon class="cls-3" points="186.85 174.7 147.87 186.04 142.75 125.41 172.71 118.87 186.85 174.7"/><polygon class="cls-4" points="106.96 174.7 147.87 186.04 142.75 125.41 111.68 118.87 106.96 174.7"/><polygon class="cls-5" points="88.63 155.11 91.06 178.91 106.96 174.7 109.19 148.31 88.63 155.11"/><polygon class="cls-5" points="93.12 151.17 109.4 145.85 110.08 137.83 93.12 151.17"/><polygon class="cls-5" points="98.59 143.93 76.57 136.98 71.16 158.35 86.44 153.36 98.59 143.93"/><polygon class="cls-6" points="110.33 134.82 111.68 118.87 79.5 125.41 77.13 134.8 100.83 142.19 110.33 134.82"/><polygon class="cls-7" points="70.45 161.13 64.14 186.04 87.85 179.76 85.76 156.07 70.45 161.13"/><polygon class="cls-5" points="171.73 154.01 179.34 145.03 174.8 127.14 162.25 138.24 171.73 154.01"/><polygon class="cls-5" points="183.3 160.69 180.2 148.44 173.81 156.14 183.3 160.69"/><polygon class="cls-8" points="149.02 149.94 169.05 154.58 160.4 139.87 149.02 149.94"/><polygon class="cls-8" points="145.84 149.2 158.07 138.56 143.66 136.17 144.73 148.94 145.84 149.2"/><polygon class="cls-7" points="146.87 151.84 145.11 153.4 147.87 186.04 186.85 174.7 184.09 163.78 171.29 157.56 146.87 151.84"/><polygon class="cls-8" points="160.08 136.82 174.16 124.57 172.71 118.87 142.75 125.41 143.48 134.09 160.08 136.82"/><polygon class="cls-9" points="143.48 134.09 142.75 125.41 129.42 122.61 119.77 130.2 143.48 134.09"/><polygon class="cls-9" points="126.78 122.05 111.68 118.87 110.33 134.82 126.78 122.05"/><path class="cls-9" d="M110.08,137.83l-.68,8,8.67-2.84a1.68,1.68,0,0,1,.89,0l25.77,6-1.07-12.77-26-4.31Z"/><polygon class="cls-10" points="125.22 170.98 123.86 179.39 147.87 186.04 145.11 153.4 125.22 170.98"/><polygon class="cls-6" points="128.98 147.65 125.94 166.5 143.67 151.09 128.98 147.65"/><polygon class="cls-9" points="118.58 145.21 109.19 148.31 106.96 174.7 120.78 178.54 126.29 147.01 118.58 145.21"/><path class="cls-11" d="M159.9,55.33a30.15,30.15,0,0,0-30.15,30.15c0,13.24,19,38.93,26.83,49a4.21,4.21,0,0,0,6.64,0c7.83-10,26.83-35.73,26.83-49A30.15,30.15,0,0,0,159.9,55.33Zm0,42.06a11.91,11.91,0,1,1,11.91-11.88A11.91,11.91,0,0,1,159.9,97.39Z"/><path class="cls-11" d="M159.9,55.33a30.15,30.15,0,0,0-30.15,30.15c0,16.68,30.15,53.12,30.15,53.12s30.15-36.44,30.15-53.12A30.15,30.15,0,0,0,159.9,55.33Zm0,42.06a11.91,11.91,0,1,1,11.91-11.88A11.91,11.91,0,0,1,159.9,97.39Z"/><path class="cls-3" d="M175.35,85.51a15.45,15.45,0,1,0-15.46,15.42A15.46,15.46,0,0,0,175.35,85.51ZM159.9,93.76a8.28,8.28,0,1,1,8.28-8.26A8.28,8.28,0,0,1,159.9,93.76Z"/><path class="cls-12" d="M176.3,60.2A41.11,41.11,0,0,1,179.45,76c0,20-14.25,36.91-34.11,43.06,7.39,10.81,14.56,19.51,14.56,19.51s30.15-36.44,30.15-53.13A30,30,0,0,0,176.3,60.2Z"/><g class="cls-13"><path class="cls-14" d="M161.57,64.2c-.69,1.77-6.37,1.53-11.34,4.41-5.14,2.53-8.12,7.4-10,7-2-.16-1.37-8.8,6.71-13.16S162.55,62.47,161.57,64.2Z"/></g><path class="cls-15" d="M159.9,93.75a8.27,8.27,0,1,1,7.9-10.56,45.65,45.65,0,0,0,3.38-17.26,46.27,46.27,0,0,0-.85-8.71,30.08,30.08,0,0,0-40.58,28.26c0,6.26,4.25,15.32,9.56,24.18A45.9,45.9,0,0,0,162,93.46,8.2,8.2,0,0,1,159.9,93.75Z"/><path class="cls-11" d="M92.07,94.65A13.35,13.35,0,0,0,78.72,108c0,5.86,8.41,17.24,11.88,21.68a1.86,1.86,0,0,0,2.94,0c3.47-4.44,11.88-15.81,11.88-21.68A13.33,13.33,0,0,0,92.07,94.65Zm0,18.62A5.28,5.28,0,1,1,97.35,108,5.27,5.27,0,0,1,92.07,113.27Z"/><path class="cls-11" d="M92.07,94.65A13.35,13.35,0,0,0,78.72,108c0,7.39,13.35,23.52,13.35,23.52s13.35-16.13,13.35-23.52A13.33,13.33,0,0,0,92.07,94.65Zm0,18.62A5.28,5.28,0,1,1,97.35,108,5.27,5.27,0,0,1,92.07,113.27Z"/><path class="cls-3" d="M98.92,108a6.84,6.84,0,1,0-6.85,6.83A6.85,6.85,0,0,0,98.92,108Zm-6.84,3.65A3.67,3.67,0,1,1,95.75,108,3.66,3.66,0,0,1,92.08,111.66Z"/><path class="cls-12" d="M99.34,96.8a18.39,18.39,0,0,1,1.39,7c0,8.84-6.3,16.33-15.1,19.06,3.27,4.79,6.45,8.64,6.45,8.64s13.35-16.14,13.35-23.53A13.32,13.32,0,0,0,99.34,96.8Z"/><g class="cls-13"><path class="cls-14" d="M92.82,98.57c-.31.79-2.82.68-5,2s-3.6,3.28-4.42,3.1-.6-3.9,3-5.83S93.25,97.81,92.82,98.57Z"/></g><path class="cls-15" d="M92.07,111.66a3.67,3.67,0,1,1,3.5-4.68,20,20,0,0,0,1.12-11.49,13.11,13.11,0,0,0-4.62-.84A13.35,13.35,0,0,0,78.72,108c0,2.77,1.89,6.78,4.24,10.71a20.35,20.35,0,0,0,10-7.18A3.46,3.46,0,0,1,92.07,111.66Z"/><path class="cls-11" d="M116.63,136.18a13.36,13.36,0,0,0-13.36,13.35c0,5.87,8.41,17.24,11.88,21.69a1.87,1.87,0,0,0,2.94,0c3.47-4.45,11.88-15.82,11.88-21.69A13.35,13.35,0,0,0,116.63,136.18Zm0,18.62a5.27,5.27,0,1,1,5.27-5.26A5.28,5.28,0,0,1,116.63,154.8Z"/><path class="cls-11" d="M116.63,136.18a13.36,13.36,0,0,0-13.36,13.35c0,7.39,13.36,23.53,13.36,23.53S130,156.92,130,149.53A13.35,13.35,0,0,0,116.63,136.18Zm0,18.62a5.27,5.27,0,1,1,5.27-5.26A5.28,5.28,0,0,1,116.63,154.8Z"/><path class="cls-3" d="M123.47,149.55a6.84,6.84,0,1,0-6.85,6.83A6.85,6.85,0,0,0,123.47,149.55Zm-6.84,3.65a3.67,3.67,0,1,1,3.66-3.66A3.66,3.66,0,0,1,116.63,153.2Z"/><path class="cls-12" d="M123.89,138.34a18.34,18.34,0,0,1,1.39,7c0,8.84-6.31,16.34-15.1,19.06,3.27,4.79,6.45,8.64,6.45,8.64S130,156.92,130,149.53A13.31,13.31,0,0,0,123.89,138.34Z"/><g class="cls-13"><path class="cls-14" d="M117.37,140.11c-.31.79-2.83.68-5,1.95-2.28,1.12-3.6,3.28-4.42,3.1s-.61-3.9,3-5.82S117.8,139.34,117.37,140.11Z"/></g><path class="cls-15" d="M116.63,153.19a3.66,3.66,0,1,1,3.49-4.67,20.2,20.2,0,0,0,1.5-7.64,20.45,20.45,0,0,0-.37-3.86,13.35,13.35,0,0,0-18,12.52c0,2.77,1.89,6.78,4.24,10.71a20.35,20.35,0,0,0,10-7.18A4,4,0,0,1,116.63,153.19Z"/></g></svg>