<svg xmlns="http://www.w3.org/2000/svg" viewBox="0 0 250 250"><defs><style>.cls-1{fill:#aa2b2b;}.cls-2{fill:#fccd7f;}.cls-3{fill:#ffdfcf;}.cls-4{fill:#ffcebf;}.cls-5{fill:#fe646f;}.cls-6{fill:#fd4755;}.cls-7{fill:#f6a96c;}.cls-8{fill:#ea9b58;}.cls-9{fill:#f0b95f;}.cls-10{fill:#bbe0ff;}.cls-11{fill:#9dc9eb;}.cls-12{fill:#7ebae6;}.cls-13{fill:#cba59d;}.cls-14{fill:#a3847e;}.cls-15{fill:#efedf0;}</style></defs><title>materias</title><g id="Camada_2" data-name="Camada 2"><circle class="cls-1" cx="125" cy="125" r="124.5"/></g><g id="Camada_1" data-name="Camada 1"><path class="cls-2" d="M59,65.57H53.83a2.31,2.31,0,1,1,0-4.61H59a2.31,2.31,0,0,1,0,4.61Z"/><path class="cls-2" d="M195.1,66.23h-5.21a2.31,2.31,0,0,1,0-4.61h5.21a2.31,2.31,0,1,1,0,4.61Z"/><path class="cls-2" d="M59,188.38H53.83a2.31,2.31,0,1,1,0-4.61H59a2.31,2.31,0,0,1,0,4.61Z"/><path class="cls-2" d="M195.1,189h-5.21a2.31,2.31,0,0,1,0-4.61h5.21a2.31,2.31,0,1,1,0,4.61Z"/><path class="cls-3" d="M71.57,63.92H177.36V186.74H71.57Z"/><path class="cls-4" d="M169.64,63.92V91.56a4.92,4.92,0,0,1-2.58,4.36,26.62,26.62,0,0,0-7.76,6.23l-19.93,23.3a10.5,10.5,0,0,0,.56,14.25l3.1,3.11a10.51,10.51,0,0,0,14.25.55l12.36-10.57v54h7.72V63.92Z"/><path class="cls-5" d="M177.36,53.52l2.78,10.4-2.78,10.4H71.57L68.2,63.26l3.37-9.74h30l22,5.2,23.84-5.2Z"/><path class="cls-6" d="M169.64,53.52v20.8h7.72l2.78-10.4-2.78-10.4Z"/><path class="cls-7" d="M63.11,77.81H67.5a4.08,4.08,0,0,0,4.07-4.08V52.79a4.07,4.07,0,0,0-4.07-4.07H63.11A4.07,4.07,0,0,0,59,52.79V73.73A4.08,4.08,0,0,0,63.11,77.81Z"/><path class="cls-8" d="M67.5,48.72H63.11a4,4,0,0,0-1.3.22,4.06,4.06,0,0,1,2.78,3.85V73.73a4.06,4.06,0,0,1-2.78,3.86,4,4,0,0,0,1.3.22H67.5a4.08,4.08,0,0,0,4.07-4.08V52.79A4.07,4.07,0,0,0,67.5,48.72Z"/><path class="cls-7" d="M185.82,78.47h-4.38a4.08,4.08,0,0,1-4.08-4.08V53.45a4.08,4.08,0,0,1,4.08-4.07h4.38a4.07,4.07,0,0,1,4.07,4.07V74.39A4.08,4.08,0,0,1,185.82,78.47Z"/><path class="cls-8" d="M185.82,49.38h-4.38a4,4,0,0,0-1.3.22,4.06,4.06,0,0,1,2.77,3.85V74.39a4.07,4.07,0,0,1-2.77,3.86,4,4,0,0,0,1.3.22h4.38a4.08,4.08,0,0,0,4.07-4.08V53.45A4.07,4.07,0,0,0,185.82,49.38Z"/><path class="cls-5" d="M177.36,197.14H71.57l-3.63-11.06,3.63-9.75H177.36L181,186.74Z"/><path class="cls-6" d="M169.64,176.33v20.81h7.72l3.61-10.4-3.61-10.41Z"/><path class="cls-7" d="M63.11,200.62H67.5a4.07,4.07,0,0,0,4.07-4.07V175.61a4.08,4.08,0,0,0-4.07-4.08H63.11A4.08,4.08,0,0,0,59,175.61v20.94A4.07,4.07,0,0,0,63.11,200.62Z"/><path class="cls-8" d="M67.5,171.53H63.11a4,4,0,0,0-1.3.22,4.06,4.06,0,0,1,2.78,3.86v20.94a4.06,4.06,0,0,1-2.78,3.85,4,4,0,0,0,1.3.22H67.5a4.07,4.07,0,0,0,4.07-4.07V175.61A4.08,4.08,0,0,0,67.5,171.53Z"/><path class="cls-7" d="M185.82,201.28h-4.38a4.08,4.08,0,0,1-4.08-4.07V176.27a4.08,4.08,0,0,1,4.08-4.08h4.38a4.08,4.08,0,0,1,4.07,4.08v20.94A4.07,4.07,0,0,1,185.82,201.28Z"/><path class="cls-8" d="M185.82,172.19h-4.38a4,4,0,0,0-1.3.22,4.07,4.07,0,0,1,2.77,3.86v20.94a4.06,4.06,0,0,1-2.77,3.85,4,4,0,0,0,1.3.22h4.38a4.07,4.07,0,0,0,4.07-4.07v-21A4.07,4.07,0,0,0,185.82,172.19Z"/><path class="cls-2" d="M147.41,53.52v6.63a3.77,3.77,0,0,1-3.77,3.77H105.29a3.77,3.77,0,0,1-3.77-3.77V53.52Z"/><path class="cls-9" d="M139.69,53.52v6.63a3.77,3.77,0,0,1-3.77,3.77h7.72a3.77,3.77,0,0,0,3.77-3.77V53.52Z"/><path class="cls-10" d="M198.46,96.19l-.67,7.07-.23,2.38c-.07.74-.17,1.48-.31,2.22a26.72,26.72,0,0,1-8.94,15.57L165,143.36a10.5,10.5,0,0,1-14.24-.55l-3.11-3.11a10.51,10.51,0,0,1-.55-14.25l9.13-10.68,3.48-4.06,7.31-8.56a26.74,26.74,0,0,1,17.8-9.25l9.45-.9a3.85,3.85,0,0,1,4.19,4.19Z"/><path class="cls-11" d="M194.27,92l-5.42.52a3.82,3.82,0,0,1,1.88,3.67l-.9,9.45a26.76,26.76,0,0,1-9.25,17.8l-23.3,19.92a10.52,10.52,0,0,1-3,1.78A10.49,10.49,0,0,0,165,143.36l23.31-19.92a26.8,26.8,0,0,0,9.25-17.8l.9-9.45A3.84,3.84,0,0,0,194.27,92Z"/><path class="cls-11" d="M197.79,103.26l-.23,2.38c-.07.74-.17,1.48-.31,2.22l-7.68-.25-4.37-.14a2.3,2.3,0,0,1,.18-4.6l4.7.15Z"/><path class="cls-12" d="M197.79,103.26l-.23,2.38c-.07.74-.17,1.48-.31,2.22l-7.68-.25c.11-.65.2-1.31.26-2l.25-2.62Z"/><path class="cls-11" d="M163.69,129.13a2.1,2.1,0,0,1-.74.13,2.3,2.3,0,0,1-2.18-1.56l-4.54-12.93,3.48-4.06,5.42,15.5a2.29,2.29,0,0,1-1.44,2.92Z"/><path class="cls-13" d="M146.11,112.74H86.25a2.3,2.3,0,0,1,0-4.6h59.86a2.3,2.3,0,1,1,0,4.6Z"/><path class="cls-13" d="M136.12,125.7H86.19a2.3,2.3,0,1,1,0-4.6h49.93a2.3,2.3,0,0,1,0,4.6Z"/><path class="cls-13" d="M135.2,138.73h-49a2.3,2.3,0,1,1,0-4.6h49a2.3,2.3,0,0,1,0,4.6Z"/><path class="cls-13" d="M127.45,151.76H86.19a2.3,2.3,0,1,1,0-4.6h41.26a2.3,2.3,0,1,1,0,4.6Z"/><path class="cls-13" d="M117.06,164.79H86.19a2.31,2.31,0,1,1,0-4.61h30.87a2.31,2.31,0,0,1,0,4.61Z"/><path class="cls-14" d="M97.68,100.85H86.25a2.3,2.3,0,0,1-2.3-2.3v-15a2.3,2.3,0,0,1,4.6,0V96.25h6.83V92.73a2.3,2.3,0,0,1,2.3-2.3h3.68a2.3,2.3,0,0,1,0,4.6H100v3.52A2.3,2.3,0,0,1,97.68,100.85Z"/><path class="cls-14" d="M129.67,100.85H110.75a2.3,2.3,0,0,1-2.3-2.3V85.89H97.74a2.3,2.3,0,0,1,0-4.6h13a2.3,2.3,0,0,1,2.31,2.3V96.25h14.3V91.07a2.31,2.31,0,0,1,4.61,0v7.48a2.3,2.3,0,0,1-2.3,2.3Z"/><path class="cls-14" d="M120.5,91.84a2.3,2.3,0,0,1-2.3-2.3v-6a2.3,2.3,0,0,1,2.3-2.3h19.06a2.3,2.3,0,0,1,2.3,2.3v3.58h12V83.59a2.3,2.3,0,0,1,2.3-2.3H164a2.3,2.3,0,1,1,0,4.6h-5.61v3.58a2.3,2.3,0,0,1-2.3,2.3H139.56a2.31,2.31,0,0,1-2.31-2.3V85.89H122.8v3.65a2.3,2.3,0,0,1-2.3,2.3Z"/><path class="cls-14" d="M156.62,100.85H139.56a2.3,2.3,0,1,1,0-4.6h17.06a2.3,2.3,0,0,1,0,4.6Z"/><path class="cls-13" d="M162.18,164.79H143.42a2.31,2.31,0,0,1,0-4.61h18.76a2.31,2.31,0,0,1,0,4.61Z"/><path class="cls-15" d="M127.91,164.85a2.3,2.3,0,0,1-1.63-3.93l46.14-46.14a2.3,2.3,0,1,1,3.26,3.25l-46.14,46.15a2.29,2.29,0,0,1-1.63.67Z"/></g></svg>