<svg xmlns="http://www.w3.org/2000/svg" viewBox="0 0 250 250"><defs><style>.cls-1{fill:#aa2b2b;}.cls-2{fill:#feeb70;}.cls-3{fill:#fef7cb;}.cls-4{fill:#ff52a8;}.cls-5{fill:#e53045;}</style></defs><title>materias</title><g id="Camada_2" data-name="Camada 2"><circle class="cls-1" cx="125" cy="125" r="124.5"/></g><g id="Camada_1" data-name="Camada 1"><path class="cls-2" d="M61.4,195.32A7.86,7.86,0,0,1,54,184.91l5.71-16.64a44.16,44.16,0,0,1-4.24-18.8,44,44,0,1,1,43.94,43.94,44.16,44.16,0,0,1-18.8-4.24L64,194.88h0A7.89,7.89,0,0,1,61.4,195.32Z"/><path class="cls-3" d="M195.92,165.7l-8.3-24.15a60.3,60.3,0,1,0-54.22,33.83h.1a60.49,60.49,0,0,0,26.42-6.13l24.15,8.3a9.33,9.33,0,0,0,11.85-11.85Z"/><path class="cls-4" d="M158.73,101H108.07a4.25,4.25,0,0,1,0-8.5h50.66a4.25,4.25,0,1,1,0,8.5Z"/><path class="cls-4" d="M158.73,118.49H108.07a4.26,4.26,0,0,1,0-8.51h50.66a4.26,4.26,0,1,1,0,8.51Z"/><path class="cls-4" d="M139.23,136H108.07a4.25,4.25,0,0,1,0-8.5h31.16a4.25,4.25,0,0,1,0,8.5Z"/><path class="cls-2" d="M187.62,141.55a60.41,60.41,0,0,0-53.24-86.86h-1V175.38h.1a60.49,60.49,0,0,0,26.42-6.13l24.15,8.3a9.33,9.33,0,0,0,11.85-11.85Z"/><path class="cls-5" d="M158.73,92.49H133.4V101h25.33a4.26,4.26,0,1,0,0-8.51Z"/><path class="cls-5" d="M158.73,110H133.4v8.51h25.33a4.26,4.26,0,1,0,0-8.51Z"/><path class="cls-5" d="M139.23,127.47H133.4V136h5.83a4.25,4.25,0,0,0,0-8.5Z"/></g></svg>